<svg width="232.558" height="17.713" fill="none" xmlns="http://www.w3.org/2000/svg"><path d="M84.69 0v3.38h3.91V0h-3.91Zm141.29 10.96v1.13h2.16l.12-.74q.09-.65.51-1.35.43-.69 1.55-1.63 1.25-1.03 1.74-1.96.16-.31.27-.64.22-.66.22-1.4 0-.85-.31-1.56-.15-.31-.35-.59-.03-.05-.06-.09-.65-.86-1.8-1.36-1.2-.51-2.78-.51-.36 0-.71.03-1.19.09-2.37.5-1.51.52-2.56 1.44l1.18 2.73q1.53-1.24 3.22-1.52.48-.08.98-.08.91 0 1.4.39.2.15.32.35.17.3.17.69 0 .18-.03.36-.05.37-.23.72-.27.51-.94 1.23-.93 1.01-1.32 1.91-.01.02-.01.04-.37.88-.37 1.91ZM0 .52l6.02 16.92h3.02l4.01-11.23 3.96 11.23h3.02L26.1.52h-3.59l-4.03 11.76L14.49.52H11.8L7.69 12.09 3.81.52H0Zm27.86 0v16.92h3.62v-6.57q0-.99.47-1.65.1-.14.22-.27.18-.2.41-.34.59-.38 1.42-.38.72 0 1.15.35.11.08.19.19.46.54.46 1.76v6.91h3.63v-7.07q0-2.9-1.43-4.1-1.01-.85-2.73-.85-1.17 0-2.14.45l-.04.02q-.43.2-.79.49-.47.37-.82.89V.52h-3.62Zm94.06 0v16.92h3.62v-6.57q0-.99.46-1.65.1-.14.22-.27.19-.2.42-.34.58-.38 1.42-.38.72 0 1.15.35.1.08.19.19.46.54.46 1.76v6.91h3.62v-7.07q0-2.9-1.43-4.1-1-.85-2.72-.85-1.17 0-2.14.45-.02.01-.05.02-.42.2-.78.49-.47.37-.82.89V.52h-3.62Zm79.66 16.09q1.06 1.1 3.25 1.1.92 0 1.77-.23.07-.02.13-.04l.05-2.8-.1.02q-.19.05-.39.07-.26.02-.52.02-.75 0-1.17-.37-.54-.47-.54-1.54V.52h-3.62v12.46q0 2.35 1.06 3.54.04.05.08.09Zm9.1.61q.99.49 2.22.49 1.07 0 1.95-.41.15-.06.29-.14.72-.4 1.17-1 .18-.23.31-.49v1.77h3.55V.52h-3.63v6.75q-.05-.1-.11-.18-.5-.72-1.38-1.17-.19-.1-.4-.18-.81-.32-1.75-.32-1.26 0-2.27.5-.22.11-.43.24-.24.16-.46.34-.84.69-1.36 1.78-.64 1.37-.64 3.26 0 1.9.64 3.28.52 1.1 1.37 1.8.21.18.45.33.23.15.48.27Zm-96.48-.79q1.24 1.28 3.8 1.28.67 0 1.37-.16.7-.15 1.2-.42l-.53-2.64q-.41.12-.76.19-.35.07-.66.07-1.03 0-1.5-.5-.46-.5-.46-1.51V8.37h3.48V5.66h-3.48V2.2h-3.63v3.46h-2.23v2.71h2.23v4.52q0 2.33 1.17 3.54ZM55.32 5.66v11.78h3.69v-6.09q0-1.11.54-1.78.67-.81 2.15-.96l2.04-.21-.22-3.05-1.06.07q-1.9.15-2.89 1.18-.44.46-.7 1.1V5.66h-3.55Zm135.24 0v11.78h3.69v-6.09q0-1.11.54-1.78.67-.81 2.15-.96l2.04-.21-.22-3.05-1.06.07q-1.9.15-2.89 1.18-.44.46-.7 1.1V5.66h-3.55ZM44.67 16.95q1.5.76 3.59.76.12 0 .25-.01 1.17-.03 2.32-.38 1.29-.4 2.18-1.08l-.96-2.42q-.2.15-.4.28-.63.39-1.38.61-.98.29-1.94.29-1.47 0-2.29-.64l-.08-.06q-.76-.64-.94-1.97h8.18v-.91q0-2.42-1.16-3.97-.17-.21-.35-.41-.41-.44-.91-.76-1.31-.86-3.17-.86-1.7 0-3.01.71-.06.03-.12.07-.59.34-1.07.79-.63.59-1.07 1.37-.78 1.38-.78 3.2 0 1.88.8 3.26.28.47.64.87.68.77 1.67 1.26Zm22.85 0q1.5.76 3.58.76.13 0 .26-.01 1.17-.03 2.32-.38 1.29-.4 2.18-1.08l-.96-2.42q-.2.15-.4.28-.64.39-1.38.61-.98.29-1.95.29-1.46 0-2.29-.64-.03-.03-.07-.06-.76-.64-.95-1.97h8.19v-.91q0-2.42-1.17-3.97-.16-.21-.34-.41-.42-.44-.91-.76-1.31-.86-3.18-.86-1.69 0-3 .71-.06.03-.12.07-.59.34-1.07.79-.63.59-1.07 1.37-.78 1.38-.78 3.2 0 1.88.8 3.26.28.47.64.87.68.77 1.67 1.26ZM91.27 5.66v11.78h3.62v-6.57q0-.99.46-1.65.1-.14.22-.27.19-.2.42-.34.59-.38 1.42-.38.72 0 1.15.35.1.08.19.19.46.54.46 1.76v6.91h3.62v-7.07q0-2.52-1.03-3.74-.15-.17-.32-.32-1.01-.89-2.8-.89-1.2 0-2.18.47-.04.02-.08.03-.49.25-.88.6-.41.38-.72.87V5.66h-3.55Zm47.46 11.29q1.5.76 3.58.76.13 0 .26-.01 1.16-.03 2.32-.38 1.29-.4 2.18-1.08l-.97-2.42q-.19.15-.39.28-.64.39-1.38.61-.99.29-1.95.29-1.46 0-2.29-.64-.04-.03-.07-.06-.76-.64-.95-1.97h8.19v-.91q0-2.42-1.17-3.97-.16-.21-.34-.41-.42-.44-.91-.76-1.31-.86-3.18-.86-1.69 0-3 .71-.06.03-.13.07-.59.34-1.07.79-.62.59-1.07 1.37-.77 1.38-.77 3.2 0 1.88.8 3.26.28.47.63.87.69.77 1.68 1.26Zm40.05 0q1.41.76 3.3.76 1.9 0 3.3-.76.74-.4 1.31-.97.51-.51.87-1.16.78-1.38.78-3.28 0-1.87-.78-3.25-.38-.68-.92-1.21-.55-.54-1.26-.92-1.4-.74-3.3-.74-1.89 0-3.3.74-.73.39-1.29.95-.51.52-.88 1.18-.77 1.38-.77 3.25 0 1.9.77 3.28.35.63.84 1.13.57.59 1.33 1ZM84.84 5.66v11.78h3.62V5.66h-3.62Zm69.74 0 4.8 11.78h3.04l2.52-6.69 2.6 6.69h3.07l4.75-11.78h-3.48l-2.8 7.65-2.82-7.65h-2.39l-2.81 7.56-2.81-7.56h-3.67ZM46.27 8.22q.62-.4 1.48-.4.99 0 1.58.49.79.64.87 2.15h-5.18q.17-1.25.87-1.94.18-.17.38-.3Zm22.85 0q.61-.4 1.48-.4.99 0 1.58.49.79.64.87 2.15h-5.19q.17-1.25.88-1.94.17-.17.38-.3Zm71.21 0q.61-.4 1.48-.4.98 0 1.58.49.78.64.87 2.15h-5.19q.17-1.25.88-1.94.17-.17.38-.3Zm42.9 6.52q-.51.26-1.15.26-.64 0-1.14-.26-.41-.21-.73-.58-.72-.85-.72-2.62 0-1.75.72-2.58.31-.36.7-.56.52-.27 1.17-.27.65 0 1.17.27.4.2.72.56.73.83.73 2.58 0 1.77-.73 2.62-.33.37-.74.58Zm31.89 0q-.51.26-1.14.26-.64 0-1.15-.26-.4-.21-.72-.58-.72-.85-.72-2.62 0-1.75.72-2.58.31-.36.7-.56.51-.27 1.17-.27.65 0 1.17.27.39.2.71.56.74.83.74 2.58 0 1.77-.74 2.62-.32.37-.74.58Zm9.99-1.13v3.83H229v-3.83h-3.89Z" fill="#111517" fill-rule="evenodd"/></svg>